<svg width="155" height="45" viewBox="0 0 155 45" fill="none" xmlns="http://www.w3.org/2000/svg">
<path d="M13.5 34C20.4036 34 26 28.4036 26 21.5C26 14.5964 20.4036 9 13.5 9C6.59644 9 1 14.5964 1 21.5C1 28.4036 6.59644 34 13.5 34Z" stroke="white" stroke-width="1.5" stroke-linecap="round" stroke-linejoin="round" stroke-dasharray="8 6"/>
<path d="M13.5 33.8962C20.346 33.8962 25.8958 28.3464 25.8958 21.5003C25.8958 14.6543 20.346 9.10449 13.5 9.10449C6.65393 9.10449 1.10413 14.6543 1.10413 21.5003C1.10413 28.3464 6.65393 33.8962 13.5 33.8962Z" stroke="white" stroke-width="0.3" stroke-linecap="round" stroke-linejoin="round"/>
<path d="M41.76 14.98V31.12C41.76 31.28 41.84 31.38 42 31.42C42.68 31.54 43.4 31.6 44.16 31.6C46.82 31.6 48.76 30.92 49.98 29.56C51.2 28.18 51.81 25.91 51.81 22.75C51.81 19.91 51.18 17.83 49.92 16.51C48.68 15.17 46.76 14.5 44.16 14.5C43.4 14.5 42.68 14.56 42 14.68C41.84 14.72 41.76 14.82 41.76 14.98ZM40.17 34.09C39.67 34.03 39.26 33.82 38.94 33.46C38.62 33.08 38.46 32.64 38.46 32.14V13.96C38.46 13.46 38.62 13.03 38.94 12.67C39.26 12.29 39.67 12.07 40.17 12.01C41.37 11.87 42.7 11.8 44.16 11.8C47.7 11.8 50.38 12.72 52.2 14.56C54.04 16.38 54.96 19.11 54.96 22.75C54.96 30.45 51.36 34.3 44.16 34.3C42.7 34.3 41.37 34.23 40.17 34.09ZM59.2784 13.15C59.2784 12.69 59.4384 12.3 59.7584 11.98C60.0984 11.66 60.4884 11.5 60.9284 11.5C61.3684 11.5 61.7484 11.66 62.0684 11.98C62.4084 12.3 62.5784 12.69 62.5784 13.15C62.5784 13.61 62.4084 14 62.0684 14.32C61.7484 14.64 61.3684 14.8 60.9284 14.8C60.4884 14.8 60.0984 14.64 59.7584 14.32C59.4384 14 59.2784 13.61 59.2784 13.15ZM62.0684 33.52C61.7484 33.84 61.3684 34 60.9284 34C60.4884 34 60.0984 33.84 59.7584 33.52C59.4384 33.2 59.2784 32.81 59.2784 32.35V20.05C59.2784 19.59 59.4384 19.2 59.7584 18.88C60.0984 18.56 60.4884 18.4 60.9284 18.4C61.3684 18.4 61.7484 18.56 62.0684 18.88C62.4084 19.2 62.5784 19.59 62.5784 20.05V32.35C62.5784 32.81 62.4084 33.2 62.0684 33.52ZM75.3049 26.14C73.6649 26.14 72.4249 26.42 71.5849 26.98C70.7649 27.52 70.3549 28.26 70.3549 29.2C70.3549 29.94 70.5749 30.55 71.0149 31.03C71.4549 31.51 71.9849 31.75 72.6049 31.75C73.9249 31.75 74.9749 31.34 75.7549 30.52C76.5549 29.68 76.9549 28.54 76.9549 27.1V26.38C76.9549 26.22 76.8649 26.14 76.6849 26.14H75.3049ZM71.8549 34.3C70.4949 34.3 69.3749 33.86 68.4949 32.98C67.6349 32.1 67.2049 30.94 67.2049 29.5C67.2049 27.74 67.8749 26.38 69.2149 25.42C70.5549 24.44 72.5849 23.95 75.3049 23.95H76.6849C76.8649 23.95 76.9549 23.86 76.9549 23.68V23.35C76.9549 22.29 76.7049 21.55 76.2049 21.13C75.7049 20.71 74.8049 20.5 73.5049 20.5C72.3449 20.5 70.9649 20.74 69.3649 21.22C69.0649 21.32 68.7749 21.28 68.4949 21.1C68.2349 20.9 68.1049 20.64 68.1049 20.32C68.1049 19.92 68.2249 19.56 68.4649 19.24C68.7049 18.92 69.0149 18.72 69.3949 18.64C70.8349 18.28 72.2049 18.1 73.5049 18.1C76.0249 18.1 77.7549 18.55 78.6949 19.45C79.6349 20.35 80.1049 22 80.1049 24.4V32.53C80.1049 32.93 79.9549 33.28 79.6549 33.58C79.3749 33.86 79.0349 34 78.6349 34C78.2349 34 77.8849 33.86 77.5849 33.58C77.3049 33.28 77.1549 32.93 77.1349 32.53L77.1049 31.78C77.1049 31.76 77.0949 31.75 77.0749 31.75C77.0349 31.75 77.0149 31.76 77.0149 31.78C75.8549 33.46 74.1349 34.3 71.8549 34.3ZM87.0933 33.52C86.7733 33.84 86.3833 34 85.9233 34C85.4633 34 85.0733 33.84 84.7533 33.52C84.4333 33.2 84.2733 32.81 84.2733 32.35V19.96C84.2733 19.52 84.4233 19.15 84.7233 18.85C85.0233 18.55 85.3933 18.4 85.8333 18.4C86.2733 18.4 86.6433 18.55 86.9433 18.85C87.2633 19.15 87.4233 19.52 87.4233 19.96V21.37C87.4233 21.39 87.4333 21.4 87.4533 21.4C87.4933 21.4 87.5133 21.39 87.5133 21.37C88.1133 20.55 88.9133 19.88 89.9133 19.36C90.9133 18.82 92.0033 18.51 93.1833 18.43C93.5433 18.41 93.8433 18.52 94.0833 18.76C94.3433 19 94.4733 19.3 94.4733 19.66C94.4733 20.02 94.3433 20.33 94.0833 20.59C93.8433 20.83 93.5433 20.96 93.1833 20.98C91.2633 21.06 89.8433 21.56 88.9233 22.48C88.0233 23.38 87.5733 24.72 87.5733 26.5V32.35C87.5733 32.81 87.4133 33.2 87.0933 33.52ZM103.139 34.3C101.379 34.3 100.089 33.82 99.2693 32.86C98.4493 31.88 98.0393 30.26 98.0393 28V19.93C98.0393 19.51 98.1893 19.15 98.4893 18.85C98.7893 18.55 99.1493 18.4 99.5693 18.4C99.9893 18.4 100.349 18.55 100.649 18.85C100.969 19.15 101.129 19.51 101.129 19.93V27.55C101.129 29.21 101.349 30.35 101.789 30.97C102.229 31.59 102.979 31.9 104.039 31.9C104.979 31.9 105.859 31.49 106.679 30.67C107.519 29.83 107.939 28.94 107.939 28V19.96C107.939 19.52 108.089 19.15 108.389 18.85C108.709 18.55 109.089 18.4 109.529 18.4C109.969 18.4 110.339 18.55 110.639 18.85C110.939 19.15 111.089 19.52 111.089 19.96V32.53C111.089 32.93 110.939 33.28 110.639 33.58C110.359 33.86 110.019 34 109.619 34C109.219 34 108.869 33.86 108.569 33.58C108.269 33.28 108.109 32.93 108.089 32.53V32.08C108.089 32.06 108.079 32.05 108.059 32.05C108.039 32.05 108.019 32.06 107.999 32.08C106.579 33.56 104.959 34.3 103.139 34.3ZM118.566 23.95V28.45C118.566 29.37 118.946 30.18 119.706 30.88C120.486 31.56 121.406 31.9 122.466 31.9C123.666 31.9 124.616 31.42 125.316 30.46C126.016 29.5 126.366 28.08 126.366 26.2C126.366 22.4 125.066 20.5 122.466 20.5C121.406 20.5 120.486 20.85 119.706 21.55C118.946 22.23 118.566 23.03 118.566 23.95ZM118.086 40.15C117.786 40.45 117.416 40.6 116.976 40.6C116.536 40.6 116.166 40.45 115.866 40.15C115.566 39.85 115.416 39.48 115.416 39.04V19.87C115.416 19.47 115.556 19.13 115.836 18.85C116.136 18.55 116.486 18.4 116.886 18.4C117.286 18.4 117.636 18.55 117.936 18.85C118.236 19.13 118.396 19.47 118.416 19.87V20.32C118.416 20.34 118.426 20.35 118.446 20.35C118.466 20.35 118.486 20.34 118.506 20.32C119.246 19.5 119.976 18.93 120.696 18.61C121.416 18.27 122.256 18.1 123.216 18.1C125.116 18.1 126.636 18.81 127.776 20.23C128.936 21.65 129.516 23.64 129.516 26.2C129.516 28.68 128.916 30.65 127.716 32.11C126.536 33.57 125.036 34.3 123.216 34.3C121.436 34.3 119.916 33.66 118.656 32.38C118.636 32.36 118.616 32.35 118.596 32.35C118.576 32.35 118.566 32.36 118.566 32.38V39.04C118.566 39.48 118.406 39.85 118.086 40.15ZM133.092 21.4C132.752 21.4 132.462 21.28 132.222 21.04C132.002 20.8 131.892 20.52 131.892 20.2C131.892 19.88 132.002 19.6 132.222 19.36C132.462 19.12 132.752 19 133.092 19H134.772C134.952 19 135.042 18.91 135.042 18.73V14.86C135.042 14.42 135.192 14.05 135.492 13.75C135.792 13.45 136.162 13.3 136.602 13.3C137.042 13.3 137.412 13.45 137.712 13.75C138.032 14.05 138.192 14.42 138.192 14.86V18.73C138.192 18.91 138.282 19 138.462 19H142.392C142.732 19 143.012 19.12 143.232 19.36C143.472 19.6 143.592 19.88 143.592 20.2C143.592 20.52 143.472 20.8 143.232 21.04C143.012 21.28 142.732 21.4 142.392 21.4H138.462C138.282 21.4 138.192 21.49 138.192 21.67V28.6C138.192 29.96 138.352 30.85 138.672 31.27C138.992 31.69 139.632 31.9 140.592 31.9C141.052 31.9 141.492 31.87 141.912 31.81C142.232 31.77 142.512 31.84 142.752 32.02C143.012 32.2 143.142 32.44 143.142 32.74C143.142 33.1 143.022 33.42 142.782 33.7C142.542 33.98 142.242 34.14 141.882 34.18C141.042 34.26 140.412 34.3 139.992 34.3C138.152 34.3 136.862 33.91 136.122 33.13C135.402 32.35 135.042 30.94 135.042 28.9V21.67C135.042 21.49 134.952 21.4 134.772 21.4H133.092ZM149.923 34C149.463 34 149.063 33.83 148.723 33.49C148.383 33.15 148.213 32.75 148.213 32.29V31.21C148.213 30.75 148.383 30.35 148.723 30.01C149.063 29.67 149.463 29.5 149.923 29.5H150.403C150.863 29.5 151.263 29.67 151.603 30.01C151.943 30.35 152.113 30.75 152.113 31.21V32.29C152.113 32.75 151.943 33.15 151.603 33.49C151.263 33.83 150.863 34 150.403 34H149.923Z" fill="white"/>
</svg>
