<svg width="155" height="45" viewBox="0 0 155 45" fill="none" xmlns="http://www.w3.org/2000/svg">
<path d="M13.5 34C20.4036 34 26 28.4036 26 21.5C26 14.5964 20.4036 9 13.5 9C6.59644 9 1 14.5964 1 21.5C1 28.4036 6.59644 34 13.5 34Z" stroke="#0E0E0E" stroke-width="1.5" stroke-linecap="round" stroke-linejoin="round" stroke-dasharray="8 6"/>
<path d="M13.5 33.8962C20.346 33.8962 25.8958 28.3464 25.8958 21.5003C25.8958 14.6543 20.346 9.10449 13.5 9.10449C6.65393 9.10449 1.10413 14.6543 1.10413 21.5003C1.10413 28.3464 6.65393 33.8962 13.5 33.8962Z" stroke="#0E0E0E" stroke-width="0.3" stroke-linecap="round" stroke-linejoin="round"/>
<path d="M41.76 14.98V31.12C41.76 31.28 41.84 31.38 42 31.42C42.68 31.54 43.4 31.6 44.16 31.6C46.82 31.6 48.76 30.92 49.98 29.56C51.2 28.18 51.81 25.91 51.81 22.75C51.81 19.91 51.18 17.83 49.92 16.51C48.68 15.17 46.76 14.5 44.16 14.5C43.4 14.5 42.68 14.56 42 14.68C41.84 14.72 41.76 14.82 41.76 14.98ZM40.17 34.09C39.67 34.03 39.26 33.82 38.94 33.46C38.62 33.08 38.46 32.64 38.46 32.14V13.96C38.46 13.46 38.62 13.03 38.94 12.67C39.26 12.29 39.67 12.07 40.17 12.01C41.37 11.87 42.7 11.8 44.16 11.8C47.7 11.8 50.38 12.72 52.2 14.56C54.04 16.38 54.96 19.11 54.96 22.75C54.96 30.45 51.36 34.3 44.16 34.3C42.7 34.3 41.37 34.23 40.17 34.09ZM59.2784 13.15C59.2784 12.69 59.4384 12.3 59.7584 11.98C60.0984 11.66 60.4884 11.5 60.9284 11.5C61.3684 11.5 61.7484 11.66 62.0684 11.98C62.4084 12.3 62.5784 12.69 62.5784 13.15C62.5784 13.61 62.4084 14 62.0684 14.32C61.7484 14.64 61.3684 14.8 60.9284 14.8C60.4884 14.8 60.0984 14.64 59.7584 14.32C59.4384 14 59.2784 13.61 59.2784 13.15ZM62.0684 33.52C61.7484 33.84 61.3684 34 60.9284 34C60.4884 34 60.0984 33.84 59.7584 33.52C59.4384 33.2 59.2784 32.81 59.2784 32.35V20.05C59.2784 19.59 59.4384 19.2 59.7584 18.88C60.0984 18.56 60.4884 18.4 60.9284 18.4C61.3684 18.4 61.7484 18.56 62.0684 18.88C62.4084 19.2 62.5784 19.59 62.5784 20.05V32.35C62.5784 32.81 62.4084 33.2 62.0684 33.52ZM75.3049 26.14C73.6649 26.14 72.4249 26.42 71.5849 26.98C70.7649 27.52 70.3549 28.26 70.3549 29.2C70.3549 29.94 70.5749 30.55 71.0149 31.03C71.4549 31.51 71.9849 31.75 72.6049 31.75C73.9249 31.75 74.9749 31.34 75.7549 30.52C76.5549 29.68 76.9549 28.54 76.9549 27.1V26.38C76.9549 26.22 76.8649 26.14 76.6849 26.14H75.3049ZM71.8549 34.3C70.4949 34.3 69.3749 33.86 68.4949 32.98C67.6349 32.1 67.2049 30.94 67.2049 29.5C67.2049 27.74 67.8749 26.38 69.2149 25.42C70.5549 24.44 72.5849 23.95 75.3049 23.95H76.6849C76.8649 23.95 76.9549 23.86 76.9549 23.68V23.35C76.9549 22.29 76.7049 21.55 76.2049 21.13C75.7049 20.71 74.8049 20.5 73.5049 20.5C72.3449 20.5 70.9649 20.74 69.3649 21.22C69.0649 21.32 68.7749 21.28 68.4949 21.1C68.2349 20.9 68.1049 20.64 68.1049 20.32C68.1049 19.92 68.2249 19.56 68.4649 19.24C68.7049 18.92 69.0149 18.72 69.3949 18.64C70.8349 18.28 72.2049 18.1 73.5049 18.1C76.0249 18.1 77.7549 18.55 78.6949 19.45C79.6349 20.35 80.1049 22 80.1049 24.4V32.53C80.1049 32.93 79.9549 33.28 79.6549 33.58C79.3749 33.86 79.0349 34 78.6349 34C78.2349 34 77.8849 33.86 77.5849 33.58C77.3049 33.28 77.1549 32.93 77.1349 32.53L77.1049 31.78C77.1049 31.76 77.0949 31.75 77.0749 31.75C77.0349 31.75 77.0149 31.76 77.0149 31.78C75.8549 33.46 74.1349 34.3 71.8549 34.3ZM87.0933 33.52C86.7733 33.84 86.3833 34 85.9233 34C85.4633 34 85.0733 33.84 84.7533 33.52C84.4333 33.2 84.2733 32.81 84.2733 32.35V19.96C84.2733 19.52 84.4233 19.15 84.7233 18.85C85.0233 18.55 85.3933 18.4 85.8333 18.4C86.2733 18.4 86.6433 18.55 86.9433 18.85C87.2633 19.15 87.4233 19.52 87.4233 19.96V21.37C87.4233 21.39 87.4333 21.4 87.4533 21.4C87.4933 21.4 87.5133 21.39 87.5133 21.37C88.1133 20.55 88.9133 19.88 89.9133 19.36C90.9133 18.82 92.0033 18.51 93.1833 18.43C93.5433 18.41 93.8433 18.52 94.0833 18.76C94.3433 19 94.4733 19.3 94.4733 19.66C94.4733 20.02 94.3433 20.33 94.0833 20.59C93.8433 20.83 93.5433 20.96 93.1833 20.98C91.2633 21.06 89.8433 21.56 88.9233 22.48C88.0233 23.38 87.5733 24.72 87.5733 26.5V32.35C87.5733 32.81 87.4133 33.2 87.0933 33.52ZM103.139 34.3C101.379 34.3 100.089 33.82 99.2693 32.86C98.4493 31.88 98.0393 30.26 98.0393 28V19.93C98.0393 19.51 98.1893 19.15 98.4893 18.85C98.7893 18.55 99.1493 18.4 99.5693 18.4C99.9893 18.4 100.349 18.55 100.649 18.85C100.969 19.15 101.129 19.51 101.129 19.93V27.55C101.129 29.21 101.349 30.35 101.789 30.97C102.229 31.59 102.979 31.9 104.039 31.9C104.979 31.9 105.859 31.49 106.679 30.67C107.519 29.83 107.939 28.94 107.939 28V19.96C107.939 19.52 108.089 19.15 108.389 18.85C108.709 18.55 109.089 18.4 109.529 18.4C109.969 18.4 110.339 18.55 110.639 18.85C110.939 19.15 111.089 19.52 111.089 19.96V32.53C111.089 32.93 110.939 33.28 110.639 33.58C110.359 33.86 110.019 34 109.619 34C109.219 34 108.869 33.86 108.569 33.58C108.269 33.28 108.109 32.93 108.089 32.53V32.08C108.089 32.06 108.079 32.05 108.059 32.05C108.039 32.05 108.019 32.06 107.999 32.08C106.579 33.56 104.959 34.3 103.139 34.3ZM118.566 23.95V28.45C118.566 29.37 118.946 30.18 119.706 30.88C120.486 31.56 121.406 31.9 122.466 31.9C123.666 31.9 124.616 31.42 125.316 30.46C126.016 29.5 126.366 28.08 126.366 26.2C126.366 22.4 125.066 20.5 122.466 20.5C121.406 20.5 120.486 20.85 119.706 21.55C118.946 22.23 118.566 23.03 118.566 23.95ZM118.086 40.15C117.786 40.45 117.416 40.6 116.976 40.6C116.536 40.6 116.166 40.45 115.866 40.15C115.566 39.85 115.416 39.48 115.416 39.04V19.87C115.416 19.47 115.556 19.13 115.836 18.85C116.136 18.55 116.486 18.4 116.886 18.4C117.286 18.4 117.636 18.55 117.936 18.85C118.236 19.13 118.396 19.47 118.416 19.87V20.32C118.416 20.34 118.426 20.35 118.446 20.35C118.466 20.35 118.486 20.34 118.506 20.32C119.246 19.5 119.976 18.93 120.696 18.61C121.416 18.27 122.256 18.1 123.216 18.1C125.116 18.1 126.636 18.81 127.776 20.23C128.936 21.65 129.516 23.64 129.516 26.2C129.516 28.68 128.916 30.65 127.716 32.11C126.536 33.57 125.036 34.3 123.216 34.3C121.436 34.3 119.916 33.66 118.656 32.38C118.636 32.36 118.616 32.35 118.596 32.35C118.576 32.35 118.566 32.36 118.566 32.38V39.04C118.566 39.48 118.406 39.85 118.086 40.15ZM133.092 21.4C132.752 21.4 132.462 21.28 132.222 21.04C132.002 20.8 131.892 20.52 131.892 20.2C131.892 19.88 132.002 19.6 132.222 19.36C132.462 19.12 132.752 19 133.092 19H134.772C134.952 19 135.042 18.91 135.042 18.73V14.86C135.042 14.42 135.192 14.05 135.492 13.75C135.792 13.45 136.162 13.3 136.602 13.3C137.042 13.3 137.412 13.45 137.712 13.75C138.032 14.05 138.192 14.42 138.192 14.86V18.73C138.192 18.91 138.282 19 138.462 19H142.392C142.732 19 143.012 19.12 143.232 19.36C143.472 19.6 143.592 19.88 143.592 20.2C143.592 20.52 143.472 20.8 143.232 21.04C143.012 21.28 142.732 21.4 142.392 21.4H138.462C138.282 21.4 138.192 21.49 138.192 21.67V28.6C138.192 29.96 138.352 30.85 138.672 31.27C138.992 31.69 139.632 31.9 140.592 31.9C141.052 31.9 141.492 31.87 141.912 31.81C142.232 31.77 142.512 31.84 142.752 32.02C143.012 32.2 143.142 32.44 143.142 32.74C143.142 33.1 143.022 33.42 142.782 33.7C142.542 33.98 142.242 34.14 141.882 34.18C141.042 34.26 140.412 34.3 139.992 34.3C138.152 34.3 136.862 33.91 136.122 33.13C135.402 32.35 135.042 30.94 135.042 28.9V21.67C135.042 21.49 134.952 21.4 134.772 21.4H133.092ZM149.923 34C149.463 34 149.063 33.83 148.723 33.49C148.383 33.15 148.213 32.75 148.213 32.29V31.21C148.213 30.75 148.383 30.35 148.723 30.01C149.063 29.67 149.463 29.5 149.923 29.5H150.403C150.863 29.5 151.263 29.67 151.603 30.01C151.943 30.35 152.113 30.75 152.113 31.21V32.29C152.113 32.75 151.943 33.15 151.603 33.49C151.263 33.83 150.863 34 150.403 34H149.923Z" fill="black"/>
<path d="M42 31.42L41.7575 32.3901L41.7916 32.3987L41.8262 32.4048L42 31.42ZM49.98 29.56L50.7244 30.2278L50.7292 30.2223L49.98 29.56ZM49.92 16.51L49.186 17.1892L49.1913 17.1949L49.1966 17.2005L49.92 16.51ZM42 14.68L41.8262 13.6952L41.7916 13.7013L41.7575 13.7099L42 14.68ZM40.17 34.09L40.0509 35.0829L40.0541 35.0833L40.17 34.09ZM38.94 33.46L38.1751 34.1041L38.1837 34.1144L38.1926 34.1244L38.94 33.46ZM38.94 12.67L39.6874 13.3344L39.6963 13.3244L39.7049 13.3141L38.94 12.67ZM40.17 12.01L40.0541 11.0167L40.0509 11.0171L40.17 12.01ZM52.2 14.56L51.489 15.2633L51.4968 15.271L52.2 14.56ZM40.76 14.98V31.12H42.76V14.98H40.76ZM40.76 31.12C40.76 31.3691 40.8249 31.6719 41.0391 31.9397C41.2509 32.2044 41.5266 32.3324 41.7575 32.3901L42.2425 30.4499C42.3134 30.4676 42.4691 30.5256 42.6009 30.6903C42.7351 30.8581 42.76 31.0309 42.76 31.12H40.76ZM41.8262 32.4048C42.569 32.5359 43.3475 32.6 44.16 32.6V30.6C43.4525 30.6 42.791 30.5441 42.1738 30.4352L41.8262 32.4048ZM44.16 32.6C46.9723 32.6 49.2417 31.8806 50.7244 30.2278L49.2356 28.8922C48.2783 29.9594 46.6677 30.6 44.16 30.6V32.6ZM50.7292 30.2223C52.1922 28.5674 52.81 25.9938 52.81 22.75H50.81C50.81 25.8262 50.2078 27.7926 49.2308 28.8977L50.7292 30.2223ZM52.81 22.75C52.81 19.7911 52.1577 17.406 50.6434 15.8195L49.1966 17.2005C50.2023 18.254 50.81 20.0289 50.81 22.75H52.81ZM50.654 15.8308C49.1559 14.212 46.918 13.5 44.16 13.5V15.5C46.602 15.5 48.2041 16.128 49.186 17.1892L50.654 15.8308ZM44.16 13.5C43.3475 13.5 42.569 13.5641 41.8262 13.6952L42.1738 15.6648C42.791 15.5559 43.4525 15.5 44.16 15.5V13.5ZM41.7575 13.7099C41.5266 13.7676 41.2509 13.8956 41.0391 14.1603C40.8249 14.4281 40.76 14.7309 40.76 14.98H42.76C42.76 15.0691 42.7351 15.2419 42.6009 15.4097C42.4691 15.5744 42.3134 15.6324 42.2425 15.6501L41.7575 13.7099ZM40.2891 33.0971C40.0196 33.0648 39.8372 32.9642 39.6874 32.7956L38.1926 34.1244C38.6828 34.6758 39.3204 34.9952 40.0509 35.0829L40.2891 33.0971ZM39.7049 32.8159C39.5378 32.6174 39.46 32.406 39.46 32.14H37.46C37.46 32.874 37.7022 33.5426 38.1751 34.1041L39.7049 32.8159ZM39.46 32.14V13.96H37.46V32.14H39.46ZM39.46 13.96C39.46 13.6947 39.5368 13.5038 39.6874 13.3344L38.1926 12.0056C37.7032 12.5562 37.46 13.2253 37.46 13.96H39.46ZM39.7049 13.3141C39.8592 13.131 40.037 13.0331 40.2891 13.0029L40.0509 11.0171C39.303 11.1069 38.6608 11.449 38.1751 12.0259L39.7049 13.3141ZM40.2859 13.0033C41.4405 12.8686 42.731 12.8 44.16 12.8V10.8C42.669 10.8 41.2995 10.8714 40.0541 11.0167L40.2859 13.0033ZM44.16 12.8C47.5336 12.8 49.9175 13.6744 51.489 15.2632L52.911 13.8568C50.8425 11.7656 47.8664 10.8 44.16 10.8V12.8ZM51.4968 15.271C53.0807 16.8377 53.96 19.2669 53.96 22.75H55.96C55.96 18.9531 54.9993 15.9223 52.9032 13.849L51.4968 15.271ZM53.96 22.75C53.96 26.4619 53.0909 29.0597 51.5296 30.7295C49.98 32.3867 47.588 33.3 44.16 33.3V35.3C47.932 35.3 50.94 34.2883 52.9904 32.0955C55.0291 29.9153 55.96 26.7381 55.96 22.75H53.96ZM44.16 33.3C42.731 33.3 41.4405 33.2314 40.2859 33.0967L40.0541 35.0833C41.2995 35.2286 42.669 35.3 44.16 35.3V33.3ZM59.7584 11.98L59.073 11.2518L59.062 11.2622L59.0513 11.2729L59.7584 11.98ZM62.0684 11.98L61.3613 12.6871L61.372 12.6978L61.383 12.7082L62.0684 11.98ZM62.0684 14.32L61.383 13.5918L61.372 13.6022L61.3613 13.6129L62.0684 14.32ZM59.7584 14.32L59.0513 15.0271L59.062 15.0378L59.073 15.0482L59.7584 14.32ZM62.0684 33.52L61.383 32.7918L61.372 32.8022L61.3613 32.8129L62.0684 33.52ZM59.7584 33.52L59.0513 34.2271L59.062 34.2378L59.073 34.2482L59.7584 33.52ZM59.7584 18.88L59.073 18.1518L59.062 18.1622L59.0513 18.1729L59.7584 18.88ZM62.0684 18.88L61.3613 19.5871L61.372 19.5978L61.383 19.6082L62.0684 18.88ZM60.2784 13.15C60.2784 12.9503 60.3364 12.8161 60.4655 12.6871L59.0513 11.2729C58.5403 11.7839 58.2784 12.4297 58.2784 13.15H60.2784ZM60.4437 12.7082C60.6107 12.551 60.7597 12.5 60.9284 12.5V10.5C60.217 10.5 59.586 10.7689 59.073 11.2518L60.4437 12.7082ZM60.9284 12.5C61.0948 12.5 61.2228 12.5487 61.3613 12.6871L62.7755 11.2729C62.2739 10.7713 61.6419 10.5 60.9284 10.5V12.5ZM61.383 12.7082C61.5256 12.8424 61.5784 12.9704 61.5784 13.15H63.5784C63.5784 12.4096 63.2911 11.7576 62.7537 11.2518L61.383 12.7082ZM61.5784 13.15C61.5784 13.3296 61.5256 13.4576 61.383 13.5918L62.7537 15.0482C63.2911 14.5424 63.5784 13.8904 63.5784 13.15H61.5784ZM61.3613 13.6129C61.2228 13.7513 61.0948 13.8 60.9284 13.8V15.8C61.6419 15.8 62.2739 15.5287 62.7755 15.0271L61.3613 13.6129ZM60.9284 13.8C60.7597 13.8 60.6107 13.7489 60.4437 13.5918L59.073 15.0482C59.586 15.531 60.217 15.8 60.9284 15.8V13.8ZM60.4655 13.6129C60.3364 13.4839 60.2784 13.3497 60.2784 13.15H58.2784C58.2784 13.8703 58.5403 14.5161 59.0513 15.0271L60.4655 13.6129ZM61.3613 32.8129C61.2228 32.9513 61.0948 33 60.9284 33V35C61.6419 35 62.2739 34.7287 62.7755 34.2271L61.3613 32.8129ZM60.9284 33C60.7597 33 60.6107 32.949 60.4437 32.7918L59.073 34.2482C59.586 34.731 60.217 35 60.9284 35V33ZM60.4655 32.8129C60.3364 32.6839 60.2784 32.5497 60.2784 32.35H58.2784C58.2784 33.0703 58.5403 33.7161 59.0513 34.2271L60.4655 32.8129ZM60.2784 32.35V20.05H58.2784V32.35H60.2784ZM60.2784 20.05C60.2784 19.8503 60.3364 19.7161 60.4655 19.5871L59.0513 18.1729C58.5403 18.6839 58.2784 19.3297 58.2784 20.05H60.2784ZM60.4437 19.6082C60.6107 19.451 60.7597 19.4 60.9284 19.4V17.4C60.217 17.4 59.586 17.6689 59.073 18.1518L60.4437 19.6082ZM60.9284 19.4C61.0948 19.4 61.2228 19.4487 61.3613 19.5871L62.7755 18.1729C62.2739 17.6713 61.6419 17.4 60.9284 17.4V19.4ZM61.383 19.6082C61.5256 19.7424 61.5784 19.8704 61.5784 20.05H63.5784C63.5784 19.3096 63.2911 18.6576 62.7537 18.1518L61.383 19.6082ZM61.5784 20.05V32.35H63.5784V20.05H61.5784ZM61.5784 32.35C61.5784 32.5296 61.5256 32.6576 61.383 32.7918L62.7537 34.2482C63.2911 33.7424 63.5784 33.0904 63.5784 32.35H61.5784ZM71.5849 26.98L72.1349 27.8152L72.1396 27.812L71.5849 26.98ZM71.0149 31.03L71.7521 30.3543L71.7521 30.3543L71.0149 31.03ZM75.7549 30.52L75.0308 29.8303L75.0304 29.8308L75.7549 30.52ZM68.4949 32.98L67.7797 33.679L67.7878 33.6871L68.4949 32.98ZM69.2149 25.42L69.7973 26.233L69.8052 26.2272L69.2149 25.42ZM76.2049 21.13L75.5617 21.8957L75.5617 21.8957L76.2049 21.13ZM69.3649 21.22L69.0776 20.2622L69.0631 20.2665L69.0487 20.2713L69.3649 21.22ZM68.4949 21.1L67.8852 21.8926L67.9187 21.9184L67.9542 21.9412L68.4949 21.1ZM68.4649 19.24L67.6649 18.64L67.6649 18.64L68.4649 19.24ZM69.3949 18.64L69.6009 19.6185L69.6193 19.6147L69.6375 19.6101L69.3949 18.64ZM78.6949 19.45L78.0034 20.1723L78.0034 20.1723L78.6949 19.45ZM79.6549 33.58L78.9478 32.8729L78.9478 32.8729L79.6549 33.58ZM77.5849 33.58L76.8539 34.2623L76.8774 34.2875L76.9026 34.3111L77.5849 33.58ZM77.1349 32.53L76.1357 32.57L76.1362 32.5799L77.1349 32.53ZM77.1049 31.78H76.1049V31.8L76.1057 31.82L77.1049 31.78ZM77.0149 31.78L77.8378 32.3482L78.0149 32.0917V31.78H77.0149ZM75.3049 25.14C73.5795 25.14 72.1079 25.4295 71.0302 26.1479L72.1396 27.812C72.742 27.4105 73.7503 27.14 75.3049 27.14V25.14ZM71.0349 26.1448C69.949 26.8599 69.3549 27.9061 69.3549 29.2H71.3549C71.3549 28.6139 71.5808 28.1801 72.1349 27.8152L71.0349 26.1448ZM69.3549 29.2C69.3549 30.1535 69.6455 31.0159 70.2778 31.7057L71.7521 30.3543C71.5044 30.0841 71.3549 29.7265 71.3549 29.2H69.3549ZM70.2778 31.7057C70.8964 32.3806 71.6891 32.75 72.6049 32.75V30.75C72.2807 30.75 72.0134 30.6394 71.7521 30.3543L70.2778 31.7057ZM72.6049 32.75C74.1492 32.75 75.4791 32.2609 76.4795 31.2092L75.0304 29.8308C74.4708 30.4191 73.7006 30.75 72.6049 30.75V32.75ZM76.4791 31.2097C77.4965 30.1414 77.9549 28.7316 77.9549 27.1H75.9549C75.9549 28.3484 75.6134 29.2186 75.0308 29.8303L76.4791 31.2097ZM77.9549 27.1V26.38H75.9549V27.1H77.9549ZM77.9549 26.38C77.9549 26.1133 77.8745 25.7395 77.5518 25.4526C77.2515 25.1857 76.902 25.14 76.6849 25.14V27.14C76.6479 27.14 76.4333 27.1343 76.2231 26.9474C75.9903 26.7405 75.9549 26.4867 75.9549 26.38H77.9549ZM76.6849 25.14H75.3049V27.14H76.6849V25.14ZM71.8549 33.3C70.733 33.3 69.8762 32.947 69.202 32.2729L67.7878 33.6871C68.8737 34.773 70.2568 35.3 71.8549 35.3V33.3ZM69.2101 32.2811C68.5636 31.6195 68.2049 30.7266 68.2049 29.5H66.2049C66.2049 31.1534 66.7062 32.5805 67.7797 33.6789L69.2101 32.2811ZM68.2049 29.5C68.2049 28.0368 68.7396 26.9907 69.7973 26.2329L68.6325 24.6071C67.0103 25.7693 66.2049 27.4432 66.2049 29.5H68.2049ZM69.8052 26.2272C70.8955 25.4298 72.6733 24.95 75.3049 24.95V22.95C72.4965 22.95 70.2144 23.4502 68.6246 24.6128L69.8052 26.2272ZM75.3049 24.95H76.6849V22.95H75.3049V24.95ZM76.6849 24.95C76.9291 24.95 77.2958 24.8883 77.5945 24.5896C77.8932 24.2909 77.9549 23.9241 77.9549 23.68H75.9549C75.9549 23.6159 75.9716 23.3841 76.1803 23.1754C76.389 22.9667 76.6208 22.95 76.6849 22.95V24.95ZM77.9549 23.68V23.35H75.9549V23.68H77.9549ZM77.9549 23.35C77.9549 22.1756 77.6836 21.0661 76.8481 20.3643L75.5617 21.8957C75.7263 22.0339 75.9549 22.4044 75.9549 23.35H77.9549ZM76.8481 20.3643C76.0593 19.7017 74.8421 19.5 73.5049 19.5V21.5C74.7677 21.5 75.3506 21.7183 75.5617 21.8957L76.8481 20.3643ZM73.5049 19.5C72.2152 19.5 70.7336 19.7654 69.0776 20.2622L69.6523 22.1778C71.1963 21.7146 72.4747 21.5 73.5049 21.5V19.5ZM69.0487 20.2713C69.0389 20.2746 69.0365 20.2743 69.0406 20.2739C69.0425 20.2737 69.0453 20.2735 69.0487 20.2736C69.0522 20.2736 69.0557 20.2739 69.0591 20.2744C69.0663 20.2754 69.0693 20.2767 69.0669 20.2758C69.0641 20.2748 69.0537 20.2704 69.0357 20.2588L67.9542 21.9412C68.4734 22.275 69.077 22.3701 69.6811 22.1687L69.0487 20.2713ZM69.1046 20.3074C69.0908 20.2967 69.0863 20.2912 69.0871 20.2921C69.0881 20.2933 69.0923 20.2986 69.0968 20.3078C69.099 20.3121 69.1008 20.3164 69.1023 20.3205C69.1037 20.3246 69.1046 20.3279 69.1051 20.33C69.1061 20.3346 69.1049 20.332 69.1049 20.32H67.1049C67.1049 20.9595 67.3864 21.5089 67.8852 21.8926L69.1046 20.3074ZM69.1049 20.32C69.1049 20.1364 69.1547 19.9869 69.2649 19.84L67.6649 18.64C67.2951 19.1331 67.1049 19.7036 67.1049 20.32H69.1049ZM69.2649 19.84C69.3642 19.7076 69.466 19.647 69.6009 19.6185L69.1889 17.6614C68.5638 17.793 68.0457 18.1323 67.6649 18.64L69.2649 19.84ZM69.6375 19.6101C71.0091 19.2672 72.2973 19.1 73.5049 19.1V17.1C72.1126 17.1 70.6607 17.2928 69.1524 17.6699L69.6375 19.6101ZM73.5049 19.1C75.9787 19.1 77.3604 19.5567 78.0034 20.1723L79.3865 18.7277C78.1495 17.5433 76.0711 17.1 73.5049 17.1V19.1ZM78.0034 20.1723C78.6341 20.7762 79.1049 22.0635 79.1049 24.4H81.1049C81.1049 21.9365 80.6357 19.9238 79.3865 18.7277L78.0034 20.1723ZM79.1049 24.4V32.53H81.1049V24.4H79.1049ZM79.1049 32.53C79.1049 32.6474 79.0729 32.7478 78.9478 32.8729L80.362 34.2871C80.8369 33.8122 81.1049 33.2126 81.1049 32.53H79.1049ZM78.9478 32.8729C78.8575 32.9632 78.7727 33 78.6349 33V35C79.2971 35 79.8924 34.7568 80.362 34.2871L78.9478 32.8729ZM78.6349 33C78.4954 33 78.3874 32.9611 78.2672 32.8489L76.9026 34.3111C77.3825 34.7589 77.9745 35 78.6349 35V33ZM78.316 32.8977C78.1927 32.7656 78.1416 32.638 78.1337 32.4801L76.1362 32.5799C76.1683 33.222 76.4171 33.7944 76.8539 34.2623L78.316 32.8977ZM78.1341 32.49L78.1041 31.74L76.1057 31.82L76.1357 32.57L78.1341 32.49ZM78.1049 31.78C78.1049 31.6159 78.0632 31.3091 77.8045 31.0504C77.5459 30.7917 77.2391 30.75 77.0749 30.75V32.75C76.9308 32.75 76.639 32.7133 76.3903 32.4646C76.1416 32.2159 76.1049 31.9241 76.1049 31.78H78.1049ZM77.0749 30.75C77.0038 30.75 76.8017 30.7536 76.5827 30.8631C76.4591 30.9249 76.3063 31.0327 76.1866 31.2122C76.0628 31.3979 76.0149 31.6 76.0149 31.78H78.0149C78.0149 31.95 77.9696 32.1433 77.8507 32.3216C77.7361 32.4936 77.5908 32.5951 77.4771 32.6519C77.2782 32.7514 77.106 32.75 77.0749 32.75V30.75ZM76.192 31.2118C75.2428 32.5866 73.8511 33.3 71.8549 33.3V35.3C74.4187 35.3 76.467 34.3334 77.8378 32.3482L76.192 31.2118ZM84.7533 33.52L85.4604 32.8129L85.4604 32.8129L84.7533 33.52ZM84.7233 18.85L85.4304 19.5571L85.4304 19.5571L84.7233 18.85ZM86.9433 18.85L86.2362 19.5571L86.2476 19.5685L86.2593 19.5795L86.9433 18.85ZM87.5133 21.37L86.7063 20.7795L86.5133 21.0432V21.37H87.5133ZM89.9133 19.36L90.3746 20.2472L90.3816 20.2436L90.3884 20.2399L89.9133 19.36ZM93.1833 18.43L93.1278 17.4315L93.1156 17.4323L93.1833 18.43ZM94.0833 18.76L93.3762 19.4671L93.3903 19.4812L93.405 19.4948L94.0833 18.76ZM94.0833 20.59L93.3762 19.8829L93.3762 19.8829L94.0833 20.59ZM93.1833 20.98L93.2249 21.9792L93.2388 21.9785L93.1833 20.98ZM88.9233 22.48L89.6304 23.1871L89.6304 23.1871L88.9233 22.48ZM86.3862 32.8129C86.2571 32.9419 86.123 33 85.9233 33V35C86.6436 35 87.2894 34.7381 87.8004 34.2271L86.3862 32.8129ZM85.9233 33C85.7236 33 85.5894 32.9419 85.4604 32.8129L84.0462 34.2271C84.5571 34.7381 85.203 35 85.9233 35V33ZM85.4604 32.8129C85.3314 32.6839 85.2733 32.5497 85.2733 32.35H83.2733C83.2733 33.0703 83.5352 33.7161 84.0462 34.2271L85.4604 32.8129ZM85.2733 32.35V19.96H83.2733V32.35H85.2733ZM85.2733 19.96C85.2733 19.7742 85.3256 19.6619 85.4304 19.5571L84.0162 18.1429C83.521 18.6381 83.2733 19.2658 83.2733 19.96H85.2733ZM85.4304 19.5571C85.5352 19.4523 85.6475 19.4 85.8333 19.4V17.4C85.139 17.4 84.5113 17.6477 84.0162 18.1429L85.4304 19.5571ZM85.8333 19.4C86.019 19.4 86.1313 19.4523 86.2362 19.5571L87.6504 18.1429C87.1552 17.6477 86.5275 17.4 85.8333 17.4V19.4ZM86.2593 19.5795C86.377 19.6898 86.4233 19.7954 86.4233 19.96H88.4233C88.4233 19.2446 88.1496 18.6102 87.6272 18.1205L86.2593 19.5795ZM86.4233 19.96V21.37H88.4233V19.96H86.4233ZM86.4233 21.37C86.4233 21.5341 86.465 21.8409 86.7237 22.0996C86.9823 22.3583 87.2891 22.4 87.4533 22.4V20.4C87.5974 20.4 87.8892 20.4367 88.1379 20.6854C88.3866 20.9341 88.4233 21.2259 88.4233 21.37H86.4233ZM87.4533 22.4C87.5244 22.4 87.7265 22.3964 87.9455 22.2869C88.0691 22.2251 88.2219 22.1173 88.3416 21.9378C88.4654 21.7521 88.5133 21.55 88.5133 21.37H86.5133C86.5133 21.2 86.5586 21.0067 86.6775 20.8284C86.7921 20.6564 86.9374 20.5549 87.0511 20.4981C87.25 20.3986 87.4222 20.4 87.4533 20.4V22.4ZM88.3203 21.9605C88.8199 21.2777 89.496 20.7041 90.3746 20.2472L89.4519 18.4728C88.3305 19.0559 87.4067 19.8223 86.7063 20.7795L88.3203 21.9605ZM90.3884 20.2399C91.2574 19.7706 92.2077 19.4984 93.2509 19.4277L93.1156 17.4323C91.7989 17.5216 90.5691 17.8694 89.4381 18.4801L90.3884 20.2399ZM93.2388 19.4285C93.3003 19.425 93.3273 19.4339 93.334 19.4364C93.3393 19.4383 93.3523 19.4433 93.3762 19.4671L94.7904 18.0529C94.3355 17.598 93.7519 17.3969 93.1278 17.4315L93.2388 19.4285ZM93.405 19.4948C93.4559 19.5418 93.4733 19.5736 93.4733 19.66H95.4733C95.4733 19.0264 95.2307 18.4582 94.7616 18.0252L93.405 19.4948ZM93.4733 19.66C93.4733 19.7485 93.4531 19.8059 93.3762 19.8829L94.7904 21.2971C95.2334 20.8541 95.4733 20.2915 95.4733 19.66H93.4733ZM93.3762 19.8829C93.3216 19.9374 93.2588 19.9743 93.1278 19.9815L93.2388 21.9785C93.8277 21.9457 94.3649 21.7226 94.7904 21.2971L93.3762 19.8829ZM93.1417 19.9809C91.0884 20.0664 89.382 20.607 88.2162 21.7729L89.6304 23.1871C90.3045 22.513 91.4381 22.0536 93.2249 21.9791L93.1417 19.9809ZM88.2162 21.7729C87.0644 22.9247 86.5733 24.5621 86.5733 26.5H88.5733C88.5733 24.8779 88.9822 23.8353 89.6304 23.1871L88.2162 21.7729ZM86.5733 26.5V32.35H88.5733V26.5H86.5733ZM86.5733 32.35C86.5733 32.5497 86.5152 32.6839 86.3862 32.8129L87.8004 34.2271C88.3114 33.7161 88.5733 33.0703 88.5733 32.35H86.5733ZM99.2693 32.86L98.5023 33.5018L98.5089 33.5095L99.2693 32.86ZM98.4893 18.85L99.1964 19.5571L99.1964 19.5571L98.4893 18.85ZM100.649 18.85L99.9422 19.5571L99.9536 19.5685L99.9654 19.5795L100.649 18.85ZM101.789 30.97L100.974 31.5487L100.974 31.5487L101.789 30.97ZM106.679 30.67L107.386 31.3771L107.386 31.3771L106.679 30.67ZM108.389 18.85L107.705 18.1205L107.694 18.1315L107.682 18.1429L108.389 18.85ZM110.639 18.85L109.932 19.5571L109.932 19.5571L110.639 18.85ZM110.639 33.58L109.932 32.8729L109.932 32.8729L110.639 33.58ZM108.569 33.58L107.862 34.2871L107.874 34.2993L107.887 34.3111L108.569 33.58ZM108.089 32.53H107.089V32.555L107.091 32.5799L108.089 32.53ZM107.999 32.08L107.292 31.3729L107.285 31.3802L107.278 31.3877L107.999 32.08ZM103.139 33.3C101.552 33.3 100.593 32.8706 100.03 32.2105L98.5089 33.5095C99.5851 34.7694 101.207 35.3 103.139 35.3V33.3ZM100.036 32.2183C99.4455 31.5123 99.0393 30.1874 99.0393 28H97.0393C97.0393 30.3326 97.4531 32.2477 98.5024 33.5017L100.036 32.2183ZM99.0393 28V19.93H97.0393V28H99.0393ZM99.0393 19.93C99.0393 19.7782 99.0818 19.6717 99.1964 19.5571L97.7822 18.1429C97.2968 18.6283 97.0393 19.2418 97.0393 19.93H99.0393ZM99.1964 19.5571C99.311 19.4425 99.4175 19.4 99.5693 19.4V17.4C98.8811 17.4 98.2676 17.6575 97.7822 18.1429L99.1964 19.5571ZM99.5693 19.4C99.7211 19.4 99.8276 19.4425 99.9422 19.5571L101.356 18.1429C100.871 17.6575 100.258 17.4 99.5693 17.4V19.4ZM99.9654 19.5795C100.094 19.6999 100.129 19.7999 100.129 19.93H102.129C102.129 19.2201 101.845 18.6001 101.333 18.1205L99.9654 19.5795ZM100.129 19.93V27.55H102.129V19.93H100.129ZM100.129 27.55C100.129 28.4189 100.186 29.1868 100.312 29.8395C100.437 30.4829 100.639 31.0774 100.974 31.5487L102.605 30.3913C102.499 30.2426 102.372 29.9571 102.276 29.4605C102.182 28.9732 102.129 28.3411 102.129 27.55H100.129ZM100.974 31.5487C101.669 32.5282 102.793 32.9 104.039 32.9V30.9C103.166 30.9 102.79 30.6518 102.605 30.3913L100.974 31.5487ZM104.039 32.9C105.304 32.9 106.425 32.3382 107.386 31.3771L105.972 29.9629C105.293 30.6418 104.655 30.9 104.039 30.9V32.9ZM107.386 31.3771C108.362 30.4016 108.939 29.2707 108.939 28H106.939C106.939 28.6093 106.677 29.2584 105.972 29.9629L107.386 31.3771ZM108.939 28V19.96H106.939V28H108.939ZM108.939 19.96C108.939 19.7742 108.992 19.6619 109.096 19.5571L107.682 18.1429C107.187 18.6381 106.939 19.2658 106.939 19.96H108.939ZM109.073 19.5795C109.207 19.4539 109.342 19.4 109.529 19.4V17.4C108.836 17.4 108.211 17.6461 107.705 18.1205L109.073 19.5795ZM109.529 19.4C109.715 19.4 109.827 19.4523 109.932 19.5571L111.346 18.1429C110.851 17.6477 110.224 17.4 109.529 17.4V19.4ZM109.932 19.5571C110.037 19.6619 110.089 19.7742 110.089 19.96H112.089C112.089 19.2658 111.842 18.6381 111.346 18.1429L109.932 19.5571ZM110.089 19.96V32.53H112.089V19.96H110.089ZM110.089 32.53C110.089 32.6474 110.057 32.7478 109.932 32.8729L111.346 34.2871C111.821 33.8122 112.089 33.2126 112.089 32.53H110.089ZM109.932 32.8729C109.842 32.9632 109.757 33 109.619 33V35C110.281 35 110.877 34.7568 111.346 34.2871L109.932 32.8729ZM109.619 33C109.48 33 109.372 32.9611 109.252 32.8489L107.887 34.3111C108.367 34.7589 108.959 35 109.619 35V33ZM109.276 32.8729C109.14 32.7368 109.095 32.6168 109.088 32.4801L107.091 32.5799C107.124 33.2432 107.398 33.8232 107.862 34.2871L109.276 32.8729ZM109.089 32.53V32.08H107.089V32.53H109.089ZM109.089 32.08C109.089 31.9159 109.048 31.6091 108.789 31.3504C108.53 31.0917 108.223 31.05 108.059 31.05V33.05C107.915 33.05 107.623 33.0133 107.375 32.7646C107.126 32.5159 107.089 32.2241 107.089 32.08H109.089ZM108.059 31.05C107.681 31.05 107.421 31.2439 107.292 31.3729L108.706 32.7871C108.617 32.8761 108.398 33.05 108.059 33.05V31.05ZM107.278 31.3877C106.02 32.6985 104.651 33.3 103.139 33.3V35.3C105.267 35.3 107.139 34.4215 108.721 32.7723L107.278 31.3877ZM119.706 30.88L119.028 31.6155L119.038 31.6248L119.049 31.6338L119.706 30.88ZM125.316 30.46L124.508 29.8708L124.508 29.8708L125.316 30.46ZM119.706 21.55L120.373 22.2952L120.374 22.2942L119.706 21.55ZM118.086 40.15L117.402 39.4205L117.39 39.4315L117.379 39.4429L118.086 40.15ZM115.836 18.85L116.543 19.5571L116.543 19.5571L115.836 18.85ZM117.936 18.85L117.229 19.5571L117.241 19.5693L117.254 19.5811L117.936 18.85ZM118.416 19.87H119.416V19.845L119.415 19.8201L118.416 19.87ZM118.506 20.32L119.213 21.0271L119.231 21.009L119.248 20.99L118.506 20.32ZM120.696 18.61L121.102 19.5238L121.112 19.5191L121.123 19.5142L120.696 18.61ZM127.776 20.23L126.996 20.8561L127.001 20.8626L127.776 20.23ZM127.716 32.11L126.943 31.475L126.938 31.4814L127.716 32.11ZM118.656 32.38L119.369 31.6785L119.363 31.6729L118.656 32.38ZM117.566 23.95V28.45H119.566V23.95H117.566ZM117.566 28.45C117.566 29.6854 118.091 30.752 119.028 31.6155L120.383 30.1445C119.801 29.608 119.566 29.0546 119.566 28.45H117.566ZM119.049 31.6338C120.016 32.4767 121.171 32.9 122.466 32.9V30.9C121.641 30.9 120.956 30.6433 120.363 30.1262L119.049 31.6338ZM122.466 32.9C123.982 32.9 125.233 32.2704 126.124 31.0492L124.508 29.8708C123.998 30.5696 123.35 30.9 122.466 30.9V32.9ZM126.124 31.0492C127.002 29.8444 127.366 28.1774 127.366 26.2H125.366C125.366 27.9826 125.029 29.1556 124.508 29.8708L126.124 31.0492ZM127.366 26.2C127.366 24.2171 127.032 22.5532 126.216 21.3603C125.353 20.0993 124.046 19.5 122.466 19.5V21.5C123.486 21.5 124.128 21.8507 124.566 22.4897C125.049 23.1968 125.366 24.3829 125.366 26.2H127.366ZM122.466 19.5C121.162 19.5 120.004 19.939 119.038 20.8058L120.374 22.2942C120.968 21.761 121.649 21.5 122.466 21.5V19.5ZM119.039 20.8048C118.093 21.6515 117.566 22.7128 117.566 23.95H119.566C119.566 23.3472 119.799 22.8085 120.373 22.2952L119.039 20.8048ZM117.379 39.4429C117.274 39.5477 117.162 39.6 116.976 39.6V41.6C117.67 41.6 118.298 41.3523 118.793 40.8571L117.379 39.4429ZM116.976 39.6C116.79 39.6 116.678 39.5477 116.573 39.4429L115.159 40.8571C115.654 41.3523 116.282 41.6 116.976 41.6V39.6ZM116.573 39.4429C116.468 39.3381 116.416 39.2258 116.416 39.04H114.416C114.416 39.7342 114.664 40.3619 115.159 40.8571L116.573 39.4429ZM116.416 39.04V19.87H114.416V39.04H116.416ZM116.416 19.87C116.416 19.7322 116.453 19.6474 116.543 19.5571L115.129 18.1429C114.659 18.6126 114.416 19.2078 114.416 19.87H116.416ZM116.543 19.5571C116.668 19.432 116.768 19.4 116.886 19.4V17.4C116.203 17.4 115.604 17.668 115.129 18.1429L116.543 19.5571ZM116.886 19.4C117.003 19.4 117.104 19.432 117.229 19.5571L118.643 18.1429C118.168 17.668 117.568 17.4 116.886 17.4V19.4ZM117.254 19.5811C117.369 19.6886 117.41 19.7865 117.417 19.9199L119.415 19.8201C119.381 19.1535 119.103 18.5714 118.618 18.1189L117.254 19.5811ZM117.416 19.87V20.32H119.416V19.87H117.416ZM117.416 20.32C117.416 20.4841 117.458 20.7909 117.716 21.0496C117.975 21.3083 118.282 21.35 118.446 21.35V19.35C118.59 19.35 118.882 19.3867 119.13 19.6354C119.379 19.8841 119.416 20.1759 119.416 20.32H117.416ZM118.446 21.35C118.825 21.35 119.084 21.1561 119.213 21.0271L117.799 19.6129C117.888 19.5239 118.107 19.35 118.446 19.35V21.35ZM119.248 20.99C119.93 20.235 120.55 19.769 121.102 19.5238L120.29 17.6962C119.401 18.091 118.562 18.765 117.763 19.65L119.248 20.99ZM121.123 19.5142C121.685 19.2489 122.374 19.1 123.216 19.1V17.1C122.138 17.1 121.147 17.2911 120.269 17.7058L121.123 19.5142ZM123.216 19.1C124.828 19.1 126.055 19.6841 126.996 20.856L128.556 19.604C127.217 17.9359 125.404 17.1 123.216 17.1V19.1ZM127.001 20.8626C127.967 22.0449 128.516 23.7804 128.516 26.2H130.516C130.516 23.4996 129.905 21.2551 128.55 19.5974L127.001 20.8626ZM128.516 26.2C128.516 28.5214 127.956 30.2433 126.943 31.475L128.488 32.745C129.876 31.0567 130.516 28.8386 130.516 26.2H128.516ZM126.938 31.4814C125.941 32.7151 124.723 33.3 123.216 33.3V35.3C125.349 35.3 127.131 34.4249 128.494 32.7386L126.938 31.4814ZM123.216 33.3C121.707 33.3 120.442 32.7695 119.369 31.6785L117.943 33.0815C119.389 34.5505 121.165 35.3 123.216 35.3V33.3ZM119.363 31.6729C119.234 31.5439 118.975 31.35 118.596 31.35V33.35C118.257 33.35 118.038 33.1761 117.949 33.0871L119.363 31.6729ZM118.596 31.35C118.432 31.35 118.125 31.3917 117.866 31.6504C117.608 31.9091 117.566 32.2159 117.566 32.38H119.566C119.566 32.5241 119.529 32.8159 119.28 33.0646C119.032 33.3133 118.74 33.35 118.596 33.35V31.35ZM117.566 32.38V39.04H119.566V32.38H117.566ZM117.566 39.04C117.566 39.2046 117.52 39.3102 117.402 39.4205L118.77 40.8795C119.292 40.3898 119.566 39.7554 119.566 39.04H117.566ZM132.222 21.04L131.485 21.7157L131.5 21.7317L131.515 21.7471L132.222 21.04ZM132.222 19.36L131.515 18.6529L131.5 18.6683L131.485 18.6843L132.222 19.36ZM135.492 13.75L136.2 14.4571L136.2 14.4571L135.492 13.75ZM137.712 13.75L137.005 14.4571L137.017 14.4685L137.028 14.4795L137.712 13.75ZM143.232 19.36L142.495 20.0357L142.51 20.0517L142.525 20.0671L143.232 19.36ZM143.232 21.04L142.525 20.3329L142.51 20.3483L142.495 20.3643L143.232 21.04ZM138.672 31.27L139.468 30.664L139.468 30.664L138.672 31.27ZM141.912 31.81L141.788 30.8177L141.78 30.8188L141.771 30.8201L141.912 31.81ZM142.752 32.02L142.152 32.82L142.168 32.8314L142.183 32.8422L142.752 32.02ZM142.782 33.7L142.023 33.0492L142.023 33.0492L142.782 33.7ZM141.882 34.18L141.977 35.1755L141.985 35.1748L141.993 35.1739L141.882 34.18ZM136.122 33.13L135.388 33.8083L135.397 33.8183L136.122 33.13ZM133.092 20.4C133.017 20.4 132.982 20.385 132.93 20.3329L131.515 21.7471C131.943 22.175 132.488 22.4 133.092 22.4V20.4ZM132.96 20.3643C132.905 20.3051 132.892 20.265 132.892 20.2H130.892C130.892 20.775 131.099 21.2949 131.485 21.7157L132.96 20.3643ZM132.892 20.2C132.892 20.135 132.905 20.0949 132.96 20.0357L131.485 18.6843C131.099 19.1051 130.892 19.625 130.892 20.2H132.892ZM132.93 20.0671C132.982 20.015 133.017 20 133.092 20V18C132.488 18 131.943 18.225 131.515 18.6529L132.93 20.0671ZM133.092 20H134.772V18H133.092V20ZM134.772 20C135.017 20 135.383 19.9383 135.682 19.6396C135.981 19.3409 136.042 18.9741 136.042 18.73H134.042C134.042 18.6659 134.059 18.4341 134.268 18.2254C134.476 18.0167 134.708 18 134.772 18V20ZM136.042 18.73V14.86H134.042V18.73H136.042ZM136.042 14.86C136.042 14.6742 136.095 14.5619 136.2 14.4571L134.785 13.0429C134.29 13.5381 134.042 14.1658 134.042 14.86H136.042ZM136.2 14.4571C136.304 14.3523 136.417 14.3 136.602 14.3V12.3C135.908 12.3 135.28 12.5477 134.785 13.0429L136.2 14.4571ZM136.602 14.3C136.788 14.3 136.9 14.3523 137.005 14.4571L138.42 13.0429C137.924 12.5477 137.297 12.3 136.602 12.3V14.3ZM137.028 14.4795C137.146 14.5898 137.192 14.6954 137.192 14.86H139.192C139.192 14.1446 138.919 13.5102 138.396 13.0205L137.028 14.4795ZM137.192 14.86V18.73H139.192V14.86H137.192ZM137.192 18.73C137.192 18.9741 137.254 19.3409 137.553 19.6396C137.851 19.9383 138.218 20 138.462 20V18C138.527 18 138.758 18.0167 138.967 18.2254C139.176 18.4341 139.192 18.6659 139.192 18.73H137.192ZM138.462 20H142.392V18H138.462V20ZM142.392 20C142.443 20 142.462 20.0084 142.464 20.0091C142.466 20.01 142.468 20.0113 142.472 20.014C142.476 20.0169 142.484 20.0233 142.495 20.0357L143.97 18.6843C143.551 18.2275 142.999 18 142.392 18V20ZM142.525 20.0671C142.59 20.1322 142.592 20.1626 142.592 20.2H144.592C144.592 19.5974 144.354 19.0678 143.94 18.6529L142.525 20.0671ZM142.592 20.2C142.592 20.2374 142.59 20.2678 142.525 20.3329L143.94 21.7471C144.354 21.3322 144.592 20.8026 144.592 20.2H142.592ZM142.495 20.3643C142.484 20.3767 142.476 20.3831 142.472 20.386C142.468 20.3887 142.466 20.39 142.464 20.3909C142.462 20.3916 142.443 20.4 142.392 20.4V22.4C142.999 22.4 143.551 22.1725 143.97 21.7157L142.495 20.3643ZM142.392 20.4H138.462V22.4H142.392V20.4ZM138.462 20.4C138.218 20.4 137.851 20.4617 137.553 20.7604C137.254 21.0591 137.192 21.4259 137.192 21.67H139.192C139.192 21.7341 139.176 21.9659 138.967 22.1746C138.758 22.3833 138.527 22.4 138.462 22.4V20.4ZM137.192 21.67V28.6H139.192V21.67H137.192ZM137.192 28.6C137.192 29.3129 137.234 29.9398 137.328 30.4644C137.419 30.9689 137.575 31.4801 137.877 31.876L139.468 30.664C139.45 30.6399 139.366 30.4961 139.297 30.1106C139.231 29.7452 139.192 29.2471 139.192 28.6H137.192ZM137.877 31.876C138.496 32.6884 139.563 32.9 140.592 32.9V30.9C139.702 30.9 139.489 30.6916 139.468 30.664L137.877 31.876ZM140.592 32.9C141.096 32.9 141.583 32.8672 142.054 32.7999L141.771 30.8201C141.402 30.8728 141.009 30.9 140.592 30.9V32.9ZM142.036 32.8023C142.088 32.7958 142.113 32.8009 142.12 32.8026C142.125 32.804 142.135 32.8068 142.152 32.82L143.352 31.22C142.889 30.8721 142.344 30.7482 141.788 30.8177L142.036 32.8023ZM142.183 32.8422C142.205 32.857 142.186 32.8497 142.166 32.8113C142.156 32.7936 142.15 32.7758 142.146 32.7603C142.142 32.7453 142.142 32.7376 142.142 32.74H144.142C144.142 32.0914 143.834 31.5526 143.322 31.1978L142.183 32.8422ZM142.142 32.74C142.142 32.855 142.112 32.9456 142.023 33.0492L143.542 34.3508C143.933 33.8944 144.142 33.345 144.142 32.74H142.142ZM142.023 33.0492C141.945 33.1406 141.875 33.1747 141.772 33.1861L141.993 35.1739C142.61 35.1053 143.14 34.8194 143.542 34.3508L142.023 33.0492ZM141.788 33.1845C140.954 33.2639 140.363 33.3 139.992 33.3V35.3C140.462 35.3 141.13 35.2561 141.977 35.1755L141.788 33.1845ZM139.992 33.3C138.243 33.3 137.302 32.9202 136.848 32.4417L135.397 33.8183C136.423 34.8998 138.062 35.3 139.992 35.3V33.3ZM136.857 32.4517C136.408 31.965 136.042 30.8914 136.042 28.9H134.042C134.042 30.9886 134.397 32.735 135.388 33.8083L136.857 32.4517ZM136.042 28.9V21.67H134.042V28.9H136.042ZM136.042 21.67C136.042 21.4259 135.981 21.0591 135.682 20.7604C135.383 20.4617 135.017 20.4 134.772 20.4V22.4C134.708 22.4 134.476 22.3833 134.268 22.1746C134.059 21.9659 134.042 21.7341 134.042 21.67H136.042ZM134.772 20.4H133.092V22.4H134.772V20.4ZM148.723 30.01L149.43 30.7171L149.43 30.7171L148.723 30.01ZM151.603 30.01L150.896 30.7171L150.896 30.7171L151.603 30.01ZM149.923 33C149.741 33 149.592 32.9448 149.43 32.7829L148.016 34.1971C148.534 34.7152 149.185 35 149.923 35V33ZM149.43 32.7829C149.268 32.621 149.213 32.4717 149.213 32.29H147.213C147.213 33.0283 147.498 33.679 148.016 34.1971L149.43 32.7829ZM149.213 32.29V31.21H147.213V32.29H149.213ZM149.213 31.21C149.213 31.0283 149.268 30.879 149.43 30.7171L148.016 29.3029C147.498 29.821 147.213 30.4717 147.213 31.21H149.213ZM149.43 30.7171C149.592 30.5552 149.741 30.5 149.923 30.5V28.5C149.185 28.5 148.534 28.7848 148.016 29.3029L149.43 30.7171ZM149.923 30.5H150.403V28.5H149.923V30.5ZM150.403 30.5C150.585 30.5 150.734 30.5552 150.896 30.7171L152.31 29.3029C151.792 28.7848 151.141 28.5 150.403 28.5V30.5ZM150.896 30.7171C151.058 30.879 151.113 31.0283 151.113 31.21H153.113C153.113 30.4717 152.828 29.821 152.31 29.3029L150.896 30.7171ZM151.113 31.21V32.29H153.113V31.21H151.113ZM151.113 32.29C151.113 32.4717 151.058 32.621 150.896 32.7829L152.31 34.1971C152.828 33.679 153.113 33.0283 153.113 32.29H151.113ZM150.896 32.7829C150.734 32.9448 150.585 33 150.403 33V35C151.141 35 151.792 34.7152 152.31 34.1971L150.896 32.7829ZM150.403 33H149.923V35H150.403V33Z" fill="#0E0E0E"/>
</svg>
